<?xml version="1.0" encoding="utf-8"?>
<!-- Generator: Adobe Illustrator 24.0.2, SVG Export Plug-In . SVG Version: 6.00 Build 0)  -->
<svg version="1.1" id="Layer_1" xmlns="http://www.w3.org/2000/svg" xmlns:xlink="http://www.w3.org/1999/xlink" x="0px" y="0px"
	 viewBox="0 0 104.91 40.82" style="enable-background:new 0 0 104.91 40.82;" xml:space="preserve">
<style type="text/css">
	.st0{fill:#F2F2F2;}
</style>
<g>
	<g>
		<path class="st0" d="M103.44,13.42v25.91h-8.37c-0.1,0-0.21,0-0.3-0.01V15.51c0-1.13-0.27-2.08-0.8-2.84s-1.21-1.33-2.04-1.72
			c-0.22-0.1-0.43-0.19-0.65-0.27c-0.63-0.21-1.29-0.32-1.99-0.32c-0.93,0-1.81,0.19-2.63,0.56c-0.83,0.38-1.51,0.94-2.04,1.7
			c-0.53,0.76-0.81,1.72-0.81,2.88v7.28c-0.15,1.67-0.48,3.21-1,4.63c-0.46,1.29-1.08,2.48-1.85,3.57c-0.44,0.62-0.9,1.21-1.39,1.76
			c-1.69,1.92-3.67,3.42-5.94,4.5c-2.93,1.39-6.11,2.08-9.57,2.06c-3.45-0.03-6.64-0.72-9.57-2.09c-2.27-1.07-4.25-2.56-5.94-4.47
			c-0.49-0.55-0.96-1.14-1.39-1.76c-1.83-2.6-2.82-5.79-2.93-9.58c0.02-0.25,0.03-0.51,0.03-0.77c0-0.26-0.01-0.52-0.03-0.77
			c-0.1-1.98-0.65-3.67-1.62-5.05c-1.09-1.56-2.48-2.73-4.18-3.52c-1.68-0.79-3.48-1.19-5.39-1.19c-1.91,0-3.71,0.39-5.4,1.15
			c-1.69,0.77-3.07,1.93-4.18,3.48c-0.97,1.39-1.52,3.09-1.62,5.11c0,0.01,0,0.01,0,0.01c-0.02,0.25-0.03,0.52-0.03,0.77
			c0,0.26,0.01,0.52,0.03,0.77c0,0,0,0,0,0.01c-0.11,3.78-1.08,6.97-2.93,9.58c-0.44,0.62-0.9,1.21-1.39,1.76
			c-1.69,1.92-3.67,3.42-5.94,4.5C8.64,38.66,5.45,39.35,2,39.32v-8.14c1.91,0,3.71-0.4,5.39-1.19c1.69-0.79,3.08-1.96,4.18-3.52
			c0.97-1.39,1.52-3.07,1.62-5.05c0.02-0.25,0.03-0.51,0.03-0.77c0-0.26-0.01-0.52-0.03-0.77c0.11-3.78,1.08-6.97,2.93-9.58
			c0.44-0.62,0.9-1.21,1.4-1.77c1.69-1.9,3.66-3.39,5.92-4.45c2.93-1.38,6.12-2.08,9.58-2.09c3.45-0.03,6.63,0.66,9.57,2.06
			c2.27,1.08,4.26,2.58,5.96,4.49c0.48,0.54,0.94,1.12,1.38,1.73c1.83,2.57,2.82,5.77,2.93,9.6v0.01c-0.02,0.25-0.03,0.52-0.03,0.77
			c0,0.26,0.01,0.52,0.03,0.77v0.01c0.1,1.98,0.65,3.69,1.62,5.08c1.1,1.58,2.49,2.76,4.18,3.52c1.69,0.77,3.49,1.15,5.4,1.15
			c1.91,0,3.71-0.4,5.39-1.19c1.69-0.79,3.07-1.96,4.18-3.52c0.97-1.39,1.52-3.07,1.62-5.05c0.02-0.25,0.03-0.51,0.03-0.77
			c0-0.26-0.01-0.52-0.03-0.77c0.02-0.69-0.07-1.39,0.01-2.05c-0.11-0.74-0.03-1.49-0.03-2.31c0-2.98,0.69-5.45,2.07-7.4
			c0.27-0.37,0.54-0.72,0.83-1.06c1.23-1.43,2.7-2.54,4.42-3.32c0.42-0.19,0.84-0.35,1.27-0.51c1.74-0.62,3.58-0.94,5.51-0.94
			c0.52,0,1.03,0.03,1.53,0.07c1.35,0.12,2.66,0.41,3.93,0.88c0.45,0.16,0.89,0.34,1.32,0.55c2.12,0.99,3.87,2.47,5.24,4.43
			C102.31,9.64,103.46,11.6,103.44,13.42C103.51,13.49,103.37,13.34,103.44,13.42z"/>
	</g>
	<path class="st0" d="M30.7,30.09c0.27,0.41,0.6,0.71,1.02,0.91c0.41,0.2,0.85,0.3,1.32,0.3c0.46,0,0.9-0.1,1.32-0.31
		c0.41-0.21,0.75-0.51,1.02-0.91s0.4-0.9,0.4-1.51s-0.13-1.1-0.4-1.51c-0.27-0.4-0.6-0.71-1.02-0.91c-0.41-0.21-0.85-0.31-1.32-0.31
		s-0.9,0.1-1.32,0.3c-0.41,0.2-0.75,0.5-1.02,0.9c-0.27,0.4-0.4,0.91-0.4,1.52C30.3,29.17,30.43,29.68,30.7,30.09z"/>
	<path class="st0" d="M30.7,22.02c0.27,0.41,0.6,0.71,1.02,0.91c0.41,0.2,0.85,0.3,1.32,0.3c0.46,0,0.9-0.1,1.32-0.31
		c0.41-0.21,0.75-0.51,1.02-0.91s0.4-0.9,0.4-1.51s-0.13-1.1-0.4-1.51c-0.27-0.4-0.6-0.71-1.02-0.91c-0.41-0.21-0.85-0.31-1.32-0.31
		s-0.9,0.1-1.32,0.3c-0.41,0.2-0.75,0.5-1.02,0.9c-0.27,0.4-0.4,0.91-0.4,1.52C30.3,21.11,30.43,21.62,30.7,22.02z"/>
</g>
</svg>
