<?xml version="1.0" encoding="utf-8"?>
<!-- Generator: Adobe Illustrator 24.0.2, SVG Export Plug-In . SVG Version: 6.00 Build 0)  -->
<svg version="1.1" id="Layer_1" xmlns="http://www.w3.org/2000/svg" xmlns:xlink="http://www.w3.org/1999/xlink" x="0px" y="0px"
	 viewBox="0 0 342 79.64" style="enable-background:new 0 0 342 79.64;" xml:space="preserve">
<style type="text/css">
	.st0{fill:#1D1D1B;}
</style>
<g>
	<g>
		<path class="st0" d="M201.25,26v48.45h-15.66c-0.19,0-0.38,0-0.57-0.01V29.92c0-2.12-0.5-3.89-1.5-5.32
			c-1-1.42-2.28-2.49-3.82-3.22c-0.4-0.19-0.81-0.35-1.22-0.49c-1.18-0.39-2.42-0.59-3.72-0.59c-1.74,0-3.38,0.35-4.93,1.05
			c-1.54,0.7-2.82,1.76-3.82,3.19c-1,1.42-1.51,3.22-1.51,5.39v13.63c-0.28,3.12-0.9,6.01-1.87,8.66c-0.87,2.42-2.03,4.64-3.46,6.68
			c-0.82,1.16-1.68,2.25-2.6,3.29c-3.16,3.58-6.86,6.39-11.11,8.42c-5.48,2.61-11.43,3.9-17.89,3.85
			c-6.45-0.04-12.42-1.35-17.9-3.92c-4.25-2-7.95-4.79-11.11-8.35c-0.92-1.02-1.78-2.13-2.6-3.29c-3.44-4.86-5.27-10.83-5.48-17.91
			c0.03-0.47,0.04-0.95,0.04-1.44s-0.02-0.97-0.04-1.44c-0.2-3.71-1.22-6.86-3.03-9.45c-2.04-2.91-4.64-5.1-7.81-6.59
			c-3.14-1.48-6.51-2.22-10.08-2.22c-3.58,0-6.94,0.72-10.1,2.14c-3.15,1.44-5.75,3.61-7.81,6.51c-1.83,2.59-2.83,5.78-3.03,9.57
			c0,0.01,0,0.01,0,0.01c-0.03,0.48-0.04,0.96-0.04,1.45c0,0.48,0.02,0.97,0.04,1.44c0,0,0,0,0,0.01
			c-0.21,7.08-2.03,13.04-5.47,17.9c-0.82,1.16-1.68,2.25-2.6,3.29c-3.16,3.58-6.86,6.39-11.11,8.42c-5.48,2.61-11.44,3.9-17.9,3.85
			V59.25c3.57,0,6.94-0.74,10.09-2.22c3.15-1.48,5.76-3.68,7.81-6.59c1.82-2.59,2.83-5.74,3.03-9.45c0.03-0.47,0.04-0.95,0.04-1.44
			s-0.02-0.97-0.04-1.44c0.21-7.08,2.03-13.05,5.48-17.91c0.82-1.17,1.69-2.28,2.62-3.31c3.15-3.56,6.85-6.34,11.09-8.33
			c5.48-2.57,11.45-3.88,17.9-3.92c6.45-0.05,12.41,1.23,17.89,3.85c4.26,2.03,7.97,4.84,11.14,8.4c0.9,1.02,1.76,2.1,2.58,3.24
			c3.44,4.81,5.26,10.8,5.48,17.95v0.01c-0.03,0.48-0.04,0.96-0.04,1.45c0,0.48,0.02,0.97,0.04,1.44v0.01
			c0.2,3.71,1.22,6.89,3.03,9.51c2.06,2.97,4.65,5.16,7.81,6.59c3.16,1.44,6.52,2.15,10.1,2.15c3.57,0,6.94-0.74,10.09-2.22
			c3.15-1.48,5.75-3.68,7.81-6.59c1.82-2.59,2.83-5.74,3.03-9.45c0.03-0.47,0.04-0.95,0.04-1.44s-0.02-0.97-0.04-1.44
			c0.03-1.29-0.13-2.61,0.02-3.83c-0.21-1.38-0.05-2.79-0.05-4.31c0-5.57,1.29-10.19,3.86-13.84c0.49-0.69,1.01-1.35,1.54-1.98
			c2.31-2.68,5.05-4.74,8.26-6.2c0.78-0.35,1.57-0.67,2.37-0.95c3.26-1.17,6.7-1.75,10.31-1.75c0.97,0,1.93,0.04,2.87,0.13
			c2.53,0.23,4.98,0.78,7.34,1.64c0.83,0.3,1.65,0.64,2.46,1.02c3.96,1.86,7.23,4.62,9.8,8.27C199.13,18.94,201.29,22.6,201.25,26
			C201.39,26.13,201.12,25.86,201.25,26z"/>
	</g>
	<path class="st0" d="M65.2,57.18c0.5,0.77,1.13,1.33,1.9,1.71c0.77,0.37,1.59,0.56,2.46,0.56c0.87,0,1.69-0.19,2.46-0.58
		c0.77-0.38,1.41-0.95,1.9-1.71c0.5-0.75,0.75-1.69,0.75-2.82s-0.25-2.06-0.75-2.82c-0.5-0.75-1.13-1.32-1.9-1.71
		c-0.77-0.38-1.59-0.58-2.46-0.58s-1.69,0.19-2.46,0.56c-0.77,0.37-1.4,0.93-1.9,1.69s-0.75,1.71-0.75,2.85
		C64.45,55.47,64.7,56.41,65.2,57.18z"/>
	<path class="st0" d="M65.2,42.1c0.5,0.77,1.13,1.33,1.9,1.71s1.59,0.56,2.46,0.56c0.87,0,1.69-0.19,2.46-0.58
		c0.77-0.38,1.41-0.95,1.9-1.71c0.5-0.75,0.75-1.69,0.75-2.82c0-1.12-0.25-2.06-0.75-2.82c-0.5-0.75-1.13-1.32-1.9-1.71
		c-0.77-0.38-1.59-0.58-2.46-0.58s-1.69,0.19-2.46,0.56c-0.77,0.37-1.4,0.93-1.9,1.69c-0.5,0.75-0.75,1.71-0.75,2.85
		C64.45,40.39,64.7,41.33,65.2,42.1z"/>
	<g>
		<path class="st0" d="M216.49,27.24l1.83-0.9c0.55,1.23,1.77,1.89,3.45,1.89c1.66,0,2.94-0.79,2.94-2.19
			c0-1.58-1.45-1.85-3.13-2.17c-2.15-0.43-4.81-1.13-4.81-4.15c0-2.36,2.15-4.15,4.85-4.15c2.17,0,4.11,1.02,4.96,2.98l-1.81,0.94
			c-0.58-1.17-1.66-1.89-3.24-1.89c-1.45,0-2.62,0.85-2.62,2.07c0,1.53,1.51,1.87,3.24,2.21c2.13,0.43,4.73,1.13,4.73,4.15
			c0,2.51-2.23,4.26-5.11,4.26C219.36,30.29,217.34,29.2,216.49,27.24z"/>
		<path class="st0" d="M229.88,26.31v-4.85h-2.07v-1.83h2.07v-2.71h2.11v2.71h4v1.83h-4v4.79c0,1.36,0.81,2.17,2.07,2.17
			c0.68,0,1.43-0.26,1.94-0.62v1.94c-0.53,0.36-1.36,0.59-2.13,0.59C231.26,30.33,229.88,28.69,229.88,26.31z"/>
		<path class="st0" d="M237.6,24.78c0-3,2.15-5.45,5.28-5.45c3.15,0,5.11,2.28,5.11,5.19v0.85h-8.34c0.23,1.79,1.6,3.04,3.47,3.04
			c1.28,0,2.43-0.55,3.04-1.7l1.62,0.83c-0.91,1.79-2.6,2.75-4.64,2.75C239.97,30.29,237.6,27.99,237.6,24.78z M245.89,24.01
			c-0.08-1.66-1.3-2.79-3.02-2.79c-1.77,0-2.92,1.23-3.13,2.79H245.89z"/>
		<path class="st0" d="M250.37,16.18c0-0.77,0.62-1.41,1.38-1.41s1.36,0.64,1.36,1.41c0,0.77-0.59,1.38-1.36,1.38
			C250.99,17.56,250.37,16.94,250.37,16.18z M252.82,19.62v10.43h-2.11V19.62H252.82z"/>
		<path class="st0" d="M258.14,25.01v5.05h-2.11V24.8c0-3.04,1.81-5.43,5.17-5.43c3.41,0,5.26,2.38,5.26,5.41v5.28h-2.11v-5.03
			c0-1.96-1.06-3.64-3.15-3.64C259.17,21.39,258.14,23.07,258.14,25.01z"/>
		<path class="st0" d="M269.28,24.86V14.83h2.11v6.09c0.85-0.94,2.13-1.55,3.53-1.55c3.17,0,5.45,2.32,5.45,5.49
			c0,3-2.39,5.45-5.53,5.45C271.68,30.31,269.28,27.95,269.28,24.86z M278.26,24.84c0-1.89-1.49-3.47-3.43-3.47
			c-1.96,0-3.45,1.57-3.45,3.47c0,1.92,1.49,3.49,3.45,3.49C276.77,28.33,278.26,26.75,278.26,24.84z"/>
		<path class="st0" d="M281.88,24.78c0-3,2.15-5.45,5.28-5.45c3.15,0,5.11,2.28,5.11,5.19v0.85h-8.34c0.23,1.79,1.6,3.04,3.47,3.04
			c1.28,0,2.43-0.55,3.04-1.7l1.62,0.83c-0.91,1.79-2.6,2.75-4.64,2.75C284.24,30.29,281.88,27.99,281.88,24.78z M290.16,24.01
			c-0.08-1.66-1.3-2.79-3.02-2.79c-1.77,0-2.92,1.23-3.13,2.79H290.16z"/>
		<path class="st0" d="M294.56,30.05v-6.22c0-2.53,1.45-4.43,4.17-4.43c0.66,0,1.34,0.13,1.87,0.38v2.09
			c-0.51-0.3-1.11-0.45-1.68-0.45c-1.41,0-2.26,0.96-2.26,2.49v6.13L294.56,30.05L294.56,30.05z"/>
		<path class="st0" d="M301.57,32.27l1.77-0.96c0.62,1.13,1.77,1.85,3.28,1.85c2.19,0,3.68-1.57,3.68-4.02v-0.83
			c-0.68,1.09-1.96,1.89-3.7,1.89c-2.96,0-5.3-2.34-5.3-5.41c0-2.98,2.38-5.43,5.56-5.43c3.15,0,5.56,2.34,5.56,5.45v4.3
			c0,3.62-2.43,5.98-5.75,5.98C304.4,35.1,302.52,34.12,301.57,32.27z M310.27,24.78c0-1.92-1.53-3.41-3.45-3.41
			c-1.89,0-3.45,1.49-3.45,3.41s1.55,3.45,3.45,3.45C308.74,28.22,310.27,26.69,310.27,24.78z"/>
		<path class="st0" d="M219.68,45.79h7.09v2h-7.26c-1.45,0-2-0.74-2-1.96v-12.3h2.17L219.68,45.79L219.68,45.79z"/>
		<path class="st0" d="M227.83,42.51c0-3,2.15-5.45,5.28-5.45c3.15,0,5.11,2.28,5.11,5.19v0.85h-8.34c0.23,1.79,1.6,3.04,3.47,3.04
			c1.28,0,2.43-0.55,3.04-1.7l1.62,0.83c-0.91,1.79-2.6,2.75-4.64,2.75C230.2,48.02,227.83,45.73,227.83,42.51z M236.11,41.75
			c-0.08-1.66-1.3-2.79-3.02-2.79c-1.77,0-2.92,1.23-3.13,2.79H236.11z"/>
		<path class="st0" d="M240.6,33.91c0-0.77,0.62-1.41,1.38-1.41c0.77,0,1.36,0.64,1.36,1.41c0,0.77-0.59,1.38-1.36,1.38
			C241.22,35.3,240.6,34.68,240.6,33.91z M243.05,37.36v10.43h-2.11V37.36C240.95,37.36,243.05,37.36,243.05,37.36z"/>
		<path class="st0" d="M244.97,37.36h2.26l3.06,8.49c0.02,0.11,0.11,0.21,0.23,0.21c0.15,0,0.23-0.11,0.26-0.21l3.06-8.49h2.23
			l-3.38,9.07c-0.4,1.09-1.15,1.64-2.17,1.64c-0.98,0-1.79-0.55-2.19-1.64L244.97,37.36z"/>
		<path class="st0" d="M256.78,42.56c0-2.98,2.39-5.45,5.56-5.45c3.15,0,5.56,2.34,5.56,5.45v5.24h-2v-1.83
			c-0.79,1.28-2.17,2.08-3.88,2.08C258.99,48.05,256.78,45.58,256.78,42.56z M265.78,42.57c0-1.92-1.49-3.49-3.45-3.49
			c-1.94,0-3.45,1.57-3.45,3.49c0,1.89,1.51,3.47,3.45,3.47C264.29,46.05,265.78,44.47,265.78,42.57z"/>
		<path class="st0" d="M220.02,52.99c0.43-1.34,1.47-1.98,2.66-1.98c1.21,0,2.26,0.64,2.68,1.98l3.89,12.54h-2.21L226,62.04
			l-6.64,0.02l-1.04,3.47h-2.19L220.02,52.99z M219.96,60.08h5.47l-1.92-6.45c-0.15-0.45-0.4-0.66-0.81-0.66
			c-0.43,0-0.68,0.21-0.81,0.66L219.96,60.08z"/>
		<path class="st0" d="M231.33,65.53v-6.22c0-2.53,1.45-4.43,4.17-4.43c0.66,0,1.34,0.13,1.87,0.38v2.09
			c-0.51-0.3-1.11-0.45-1.68-0.45c-1.41,0-2.26,0.96-2.26,2.49v6.13H231.33z"/>
		<path class="st0" d="M247.06,70.32v-6.11c-0.85,0.96-2.15,1.57-3.56,1.57c-3.15,0-5.45-2.34-5.45-5.49c0-2.98,2.38-5.45,5.56-5.45
			c3.15,0,5.56,2.34,5.56,5.45v10.03H247.06z M247.06,60.32c0-1.92-1.49-3.47-3.45-3.47c-1.94,0-3.45,1.55-3.45,3.47
			c0,1.89,1.51,3.49,3.45,3.49C245.57,63.81,247.06,62.21,247.06,60.32z"/>
		<path class="st0" d="M259.95,60.12V55.1h2.11v5.28c0,3.02-1.83,5.41-5.11,5.41c-3.24,0-5.06-2.4-5.06-5.43V55.1h2.11v5.05
			c0,1.92,1.04,3.6,2.96,3.6C258.89,63.74,259.95,62.06,259.95,60.12z"/>
		<path class="st0" d="M264.87,51.65c0-0.77,0.62-1.41,1.38-1.41c0.77,0,1.36,0.64,1.36,1.41c0,0.77-0.59,1.38-1.36,1.38
			C265.49,53.03,264.87,52.42,264.87,51.65z M267.32,55.1v10.43h-2.11V55.1H267.32z"/>
		<path class="st0" d="M271.3,61.78v-4.85h-2.07V55.1h2.07v-2.71h2.11v2.71h4v1.83h-4v4.79c0,1.36,0.81,2.17,2.07,2.17
			c0.68,0,1.43-0.26,1.94-0.62v1.94c-0.53,0.36-1.36,0.59-2.13,0.59C272.68,65.81,271.3,64.17,271.3,61.78z"/>
		<path class="st0" d="M279.03,60.25c0-3,2.15-5.45,5.28-5.45c3.15,0,5.11,2.28,5.11,5.19v0.85h-8.34c0.23,1.79,1.6,3.04,3.47,3.04
			c1.28,0,2.43-0.55,3.04-1.7l1.62,0.83c-0.91,1.79-2.6,2.75-4.64,2.75C281.39,65.76,279.03,63.46,279.03,60.25z M287.31,59.48
			c-0.08-1.66-1.3-2.79-3.02-2.79c-1.77,0-2.92,1.23-3.13,2.79H287.31z"/>
		<path class="st0" d="M291.05,60.29c0-3,2.45-5.47,5.45-5.45c1.92,0,3.68,0.87,4.64,2.75l-1.75,0.98c-0.62-1.13-1.66-1.72-2.9-1.72
			c-1.83,0-3.34,1.55-3.34,3.45c0,1.92,1.51,3.49,3.34,3.49c1.23,0,2.28-0.59,2.9-1.72l1.75,0.96c-0.96,1.89-2.72,2.75-4.64,2.75
			C293.5,65.81,291.05,63.31,291.05,60.29z"/>
		<path class="st0" d="M303.84,61.78v-4.85h-2.07V55.1h2.07v-2.71h2.11v2.71h4v1.83h-4v4.79c0,1.36,0.81,2.17,2.07,2.17
			c0.68,0,1.43-0.26,1.94-0.62v1.94c-0.53,0.36-1.36,0.59-2.13,0.59C305.23,65.81,303.84,64.17,303.84,61.78z"/>
		<path class="st0" d="M311.57,60.29c0-3,2.45-5.45,5.58-5.45c3.15,0,5.53,2.47,5.53,5.45c0,3.02-2.4,5.49-5.53,5.49
			C314,65.78,311.57,63.31,311.57,60.29z M320.57,60.32c0-1.92-1.49-3.49-3.43-3.49c-1.96,0-3.47,1.57-3.47,3.49
			c0,1.89,1.51,3.47,3.47,3.47C319.08,63.78,320.57,62.21,320.57,60.32z"/>
		<path class="st0" d="M324.34,63.44l1.62-0.9c0.53,1.04,1.38,1.43,2.53,1.43c1.19,0,2.11-0.49,2.11-1.41
			c0-2.19-5.98-0.53-5.98-4.51c0-1.83,1.62-3.17,3.89-3.17c1.94,0,3.26,0.9,3.92,2.11l-1.62,0.91c-0.45-0.91-1.3-1.23-2.26-1.23
			c-0.98,0-1.83,0.51-1.83,1.34c0,2.13,5.98,0.58,5.98,4.51c0,1.98-1.92,3.24-4.13,3.24C326.64,65.76,325.15,65,324.34,63.44z"/>
	</g>
</g>
</svg>
