<?xml version="1.0" encoding="utf-8"?>
<!-- Generator: Adobe Illustrator 24.0.2, SVG Export Plug-In . SVG Version: 6.00 Build 0)  -->
<svg version="1.1" id="Layer_1" xmlns="http://www.w3.org/2000/svg" xmlns:xlink="http://www.w3.org/1999/xlink" x="0px" y="0px"
	 viewBox="0 0 1003 224" style="enable-background:new 0 0 1003 224;" xml:space="preserve">
<style type="text/css">
	.st0{fill:#1D1D1B;}
</style>
<g>
	<g>
		<path class="st0" d="M591.5,70.71v149.92h-48.45c-0.59,0-1.19,0-1.75-0.03V82.83c0-6.55-1.55-12.05-4.64-16.46
			c-3.1-4.39-7.04-7.71-11.82-9.96c-1.24-0.59-2.5-1.08-3.77-1.52c-3.66-1.21-7.48-1.83-11.51-1.83c-5.39,0-10.47,1.08-15.25,3.25
			c-4.77,2.17-8.72,5.44-11.82,9.86c-3.1,4.39-4.67,9.96-4.67,16.67v42.18c-0.88,9.65-2.79,18.6-5.78,26.81
			c-2.68,7.48-6.27,14.37-10.71,20.66c-2.53,3.59-5.21,6.97-8.05,10.17c-9.78,11.09-21.23,19.76-34.39,26.06
			c-16.95,8.08-35.37,12.07-55.34,11.92c-19.97-0.13-38.42-4.18-55.37-12.13c-13.16-6.19-24.61-14.81-34.39-25.85
			c-2.84-3.17-5.52-6.58-8.05-10.17c-10.63-15.04-16.3-33.51-16.95-55.42c0.08-1.44,0.13-2.94,0.13-4.44c0-1.5-0.05-2.99-0.13-4.44
			c-0.62-11.48-3.77-21.23-9.39-29.23c-6.32-9-14.37-15.79-24.15-20.38c-9.73-4.57-20.15-6.86-31.19-6.86
			c-11.07,0-21.47,2.22-31.24,6.63c-9.75,4.44-17.8,11.17-24.15,20.15c-5.65,8.02-8.77,17.88-9.39,29.62c0,0.03,0,0.03,0,0.03
			c-0.08,1.47-0.13,2.97-0.13,4.49c0,1.5,0.05,2.99,0.13,4.44c0,0,0,0,0,0.03c-0.64,21.9-6.29,40.35-16.92,55.39
			c-2.53,3.59-5.21,6.97-8.05,10.17c-9.78,11.09-21.23,19.76-34.39,26.06c-16.95,8.08-35.4,12.07-55.37,11.92v-47.08
			c11.04,0,21.46-2.3,31.22-6.86c9.75-4.59,17.83-11.38,24.15-20.38c5.62-8,8.77-17.75,9.39-29.23c0.08-1.44,0.13-2.94,0.13-4.44
			c0-1.5-0.05-2.99-0.13-4.44c0.64-21.9,6.29-40.38,16.95-55.42c2.55-3.61,5.24-7.04,8.1-10.24c9.75-11.02,21.18-19.61,34.31-25.77
			c16.95-7.95,35.42-12,55.39-12.13c19.97-0.15,38.39,3.82,55.34,11.92c13.18,6.29,24.66,14.96,34.47,25.98
			c2.79,3.15,5.44,6.5,7.97,10.04c10.63,14.89,16.28,33.41,16.95,55.55v0.03c-0.08,1.47-0.13,2.97-0.13,4.49
			c0,1.5,0.05,2.99,0.13,4.44v0.03c0.62,11.48,3.77,21.31,9.37,29.41c6.37,9.18,14.4,15.97,24.15,20.38
			c9.78,4.44,20.18,6.66,31.24,6.66c11.04,0,21.46-2.3,31.22-6.86c9.75-4.59,17.8-11.38,24.15-20.38c5.62-8,8.75-17.75,9.36-29.23
			c0.08-1.44,0.13-2.94,0.13-4.44c0-1.5-0.05-2.99-0.13-4.44c0.1-4-0.39-8.07,0.07-11.86c-0.64-4.28-0.15-8.62-0.15-13.34
			c0-17.23,4-31.53,11.94-42.83c1.52-2.14,3.12-4.18,4.77-6.14c7.15-8.28,15.63-14.68,25.57-19.17c2.42-1.08,4.85-2.06,7.33-2.94
			c10.09-3.61,20.74-5.42,31.89-5.42c2.99,0,5.96,0.13,8.87,0.41c7.84,0.72,15.4,2.4,22.7,5.06c2.58,0.93,5.11,1.99,7.61,3.17
			c12.25,5.75,22.37,14.29,30.31,25.59C584.95,48.85,591.63,60.19,591.5,70.71C591.94,71.09,591.09,70.27,591.5,70.71z"/>
	</g>
	<path class="st0" d="M170.54,167.16c1.55,2.37,3.51,4.13,5.89,5.28c2.38,1.15,4.92,1.72,7.62,1.72c2.69,0,5.24-0.59,7.62-1.78
		c2.38-1.19,4.35-2.94,5.89-5.28c1.55-2.33,2.32-5.24,2.32-8.72c0-3.48-0.77-6.38-2.32-8.71c-1.55-2.33-3.51-4.09-5.89-5.28
		c-2.38-1.19-4.92-1.78-7.62-1.78c-2.7,0-5.24,0.58-7.62,1.72c-2.38,1.15-4.34,2.89-5.89,5.22c-1.55,2.33-2.32,5.28-2.32,8.83
		C168.22,161.87,168.99,164.79,170.54,167.16z"/>
	<path class="st0" d="M170.54,120.51c1.55,2.37,3.51,4.13,5.89,5.28c2.38,1.15,4.92,1.72,7.62,1.72c2.69,0,5.24-0.59,7.62-1.78
		c2.38-1.19,4.35-2.94,5.89-5.28c1.55-2.33,2.32-5.24,2.32-8.72c0-3.48-0.77-6.38-2.32-8.71c-1.55-2.33-3.51-4.09-5.89-5.28
		c-2.38-1.19-4.92-1.78-7.62-1.78c-2.7,0-5.24,0.58-7.62,1.72c-2.38,1.15-4.34,2.89-5.89,5.22c-1.55,2.33-2.32,5.28-2.32,8.83
		C168.22,115.22,168.99,118.14,170.54,120.51z"/>
	<g>
		<path class="st0" d="M638.65,74.54l5.66-2.77c1.71,3.82,5.47,5.86,10.67,5.86c5.14,0,9.09-2.44,9.09-6.78
			c0-4.88-4.48-5.73-9.68-6.72c-6.65-1.32-14.88-3.49-14.88-12.84c0-7.31,6.65-12.84,15.02-12.84c6.72,0,12.71,3.16,15.34,9.22
			l-5.6,2.9c-1.78-3.62-5.14-5.86-10.01-5.86c-4.48,0-8.1,2.63-8.1,6.39c0,4.74,4.68,5.79,10.01,6.85
			c6.58,1.32,14.62,3.49,14.62,12.84c0,7.77-6.91,13.17-15.81,13.17C647.54,83.96,641.28,80.6,638.65,74.54z"/>
		<path class="st0" d="M680.07,71.65V56.63h-6.39v-5.66h6.39V42.6h6.52v8.37h12.38v5.66h-12.38v14.82c0,4.21,2.5,6.72,6.39,6.72
			c2.11,0,4.41-0.79,5.99-1.91v5.99c-1.65,1.12-4.21,1.84-6.58,1.84C684.35,84.09,680.07,79.02,680.07,71.65z"/>
		<path class="st0" d="M703.98,66.91c0-9.29,6.65-16.86,16.33-16.86c9.75,0,15.81,7.04,15.81,16.07v2.63H710.3
			c0.72,5.53,4.94,9.42,10.73,9.42c3.95,0,7.51-1.71,9.42-5.27l5.01,2.57c-2.83,5.53-8.04,8.5-14.36,8.5
			C711.29,83.96,703.98,76.85,703.98,66.91z M729.6,64.53c-0.26-5.14-4.02-8.63-9.35-8.63c-5.47,0-9.02,3.82-9.68,8.63H729.6z"/>
		<path class="st0" d="M743.49,40.3c0-2.37,1.91-4.35,4.28-4.35c2.37,0,4.21,1.97,4.21,4.35s-1.84,4.28-4.21,4.28
			C745.4,44.58,743.49,42.67,743.49,40.3z M751.07,50.97v32.27h-6.52V50.97H751.07z"/>
		<path class="st0" d="M767.53,67.63v15.61h-6.52V66.97c0-9.42,5.6-16.79,16-16.79c10.54,0,16.27,7.37,16.27,16.73v16.33h-6.52
			V67.69c0-6.06-3.29-11.26-9.75-11.26C770.69,56.43,767.53,61.64,767.53,67.63z"/>
		<path class="st0" d="M801.97,67.17V36.15h6.52v18.83c2.63-2.9,6.59-4.81,10.93-4.81c9.81,0,16.86,7.18,16.86,16.99
			c0,9.29-7.38,16.86-17.12,16.86C809.42,84.03,801.97,76.72,801.97,67.17z M829.76,67.1c0-5.86-4.61-10.73-10.6-10.73
			c-6.06,0-10.67,4.87-10.67,10.73c0,5.93,4.61,10.8,10.67,10.8C825.15,77.9,829.76,73.03,829.76,67.1z"/>
		<path class="st0" d="M840.96,66.91c0-9.29,6.65-16.86,16.33-16.86c9.75,0,15.81,7.04,15.81,16.07v2.63h-25.81
			c0.72,5.53,4.94,9.42,10.73,9.42c3.95,0,7.51-1.71,9.42-5.27l5.01,2.57c-2.83,5.53-8.03,8.5-14.36,8.5
			C848.27,83.96,840.96,76.85,840.96,66.91z M866.58,64.53c-0.26-5.14-4.02-8.63-9.35-8.63c-5.47,0-9.02,3.82-9.68,8.63H866.58z"/>
		<path class="st0" d="M880.21,83.24V64.01c0-7.84,4.48-13.7,12.91-13.7c2.04,0,4.15,0.4,5.79,1.19v6.46
			c-1.58-0.92-3.42-1.38-5.2-1.38c-4.35,0-6.98,2.96-6.98,7.7v18.97H880.21z"/>
		<path class="st0" d="M901.88,90.09l5.47-2.96c1.91,3.49,5.47,5.73,10.14,5.73c6.78,0,11.39-4.87,11.39-12.45v-2.57
			c-2.11,3.36-6.06,5.86-11.46,5.86c-9.15,0-16.4-7.24-16.4-16.73c0-9.22,7.37-16.79,17.19-16.79c9.75,0,17.19,7.24,17.19,16.86
			v13.3c0,11.19-7.51,18.51-17.78,18.51C910.64,98.84,904.84,95.82,901.88,90.09z M928.81,66.91c0-5.93-4.74-10.54-10.67-10.54
			c-5.86,0-10.67,4.61-10.67,10.54c0,5.93,4.81,10.67,10.67,10.67C924.07,77.57,928.81,72.83,928.81,66.91z"/>
		<path class="st0" d="M648.53,131.93h21.93v6.19H648c-4.48,0-6.19-2.3-6.19-6.06V94h6.72V131.93z"/>
		<path class="st0" d="M673.75,121.79c0-9.29,6.65-16.86,16.33-16.86c9.75,0,15.81,7.04,15.81,16.07v2.63h-25.82
			c0.72,5.53,4.94,9.42,10.74,9.42c3.95,0,7.51-1.71,9.42-5.27l5.01,2.57c-2.83,5.53-8.04,8.5-14.36,8.5
			C681.06,138.84,673.75,131.73,673.75,121.79z M699.37,119.42c-0.26-5.14-4.02-8.63-9.35-8.63c-5.47,0-9.02,3.82-9.68,8.63H699.37z
			"/>
		<path class="st0" d="M713.26,95.18c0-2.37,1.91-4.35,4.28-4.35c2.37,0,4.21,1.97,4.21,4.35c0,2.37-1.84,4.28-4.21,4.28
			C715.17,99.46,713.26,97.55,713.26,95.18z M720.84,105.85v32.27h-6.52v-32.27H720.84z"/>
		<path class="st0" d="M726.76,105.85h6.98l9.48,26.27c0.07,0.33,0.33,0.66,0.72,0.66c0.46,0,0.72-0.33,0.79-0.66l9.48-26.27h6.91
			l-10.47,28.05c-1.25,3.36-3.56,5.07-6.72,5.07c-3.03,0-5.53-1.71-6.78-5.07L726.76,105.85z"/>
		<path class="st0" d="M763.32,121.92c0-9.22,7.38-16.86,17.19-16.86c9.75,0,17.19,7.24,17.19,16.86v16.2h-6.19v-5.66
			c-2.44,3.95-6.72,6.45-11.99,6.45C770.16,138.91,763.32,131.27,763.32,121.92z M791.17,121.98c0-5.93-4.61-10.8-10.67-10.8
			c-5.99,0-10.67,4.87-10.67,10.8c0,5.86,4.68,10.73,10.67,10.73C786.56,132.72,791.17,127.85,791.17,121.98z"/>
		<path class="st0" d="M649.58,154.21c1.32-4.15,4.54-6.12,8.23-6.12c3.75,0,6.98,1.97,8.3,6.12L678.16,193h-6.85l-3.23-10.8
			l-20.55,0.07L644.31,193h-6.78L649.58,154.21z M649.38,176.14h16.92l-5.93-19.95c-0.46-1.38-1.25-2.04-2.5-2.04
			c-1.32,0-2.11,0.66-2.5,2.04L649.38,176.14z"/>
		<path class="st0" d="M684.55,193v-19.23c0-7.84,4.48-13.7,12.91-13.7c2.04,0,4.15,0.4,5.79,1.19v6.46
			c-1.58-0.92-3.42-1.38-5.2-1.38c-4.35,0-6.98,2.96-6.98,7.7V193H684.55z"/>
		<path class="st0" d="M733.22,207.82v-18.9c-2.63,2.96-6.65,4.87-11,4.87c-9.75,0-16.86-7.24-16.86-16.99
			c0-9.22,7.37-16.86,17.19-16.86c9.75,0,17.19,7.24,17.19,16.86v31.02H733.22z M733.22,176.87c0-5.93-4.61-10.73-10.67-10.73
			c-5.99,0-10.67,4.81-10.67,10.73c0,5.86,4.68,10.8,10.67,10.8C728.61,187.67,733.22,182.73,733.22,176.87z"/>
		<path class="st0" d="M773.13,176.27v-15.54h6.52v16.33c0,9.35-5.66,16.73-15.81,16.73c-10.01,0-15.67-7.44-15.67-16.79v-16.27
			h6.52v15.61c0,5.93,3.23,11.13,9.15,11.13C769.83,187.47,773.13,182.27,773.13,176.27z"/>
		<path class="st0" d="M788.34,150.06c0-2.37,1.91-4.35,4.28-4.35c2.37,0,4.21,1.97,4.21,4.35c0,2.37-1.84,4.28-4.21,4.28
			C790.25,154.34,788.34,152.43,788.34,150.06z M795.91,160.73V193h-6.52v-32.27H795.91z"/>
		<path class="st0" d="M808.23,181.41v-15.02h-6.39v-5.66h6.39v-8.37h6.52v8.37h12.38v5.66h-12.38v14.82c0,4.21,2.5,6.72,6.39,6.72
			c2.11,0,4.41-0.79,5.99-1.91v5.99c-1.65,1.12-4.21,1.84-6.58,1.84C812.51,193.86,808.23,188.79,808.23,181.41z"/>
		<path class="st0" d="M832.14,176.67c0-9.29,6.65-16.86,16.33-16.86c9.75,0,15.81,7.04,15.81,16.07v2.63h-25.81
			c0.72,5.53,4.94,9.42,10.73,9.42c3.95,0,7.51-1.71,9.42-5.27l5.01,2.57c-2.83,5.53-8.04,8.5-14.36,8.5
			C839.45,193.73,832.14,186.61,832.14,176.67z M857.76,174.3c-0.26-5.14-4.02-8.63-9.35-8.63c-5.47,0-9.02,3.82-9.68,8.63H857.76z"
			/>
		<path class="st0" d="M869.35,176.8c0-9.28,7.57-16.93,16.86-16.86c5.93,0,11.39,2.7,14.36,8.5l-5.4,3.03
			c-1.91-3.49-5.14-5.33-8.96-5.33c-5.66,0-10.34,4.81-10.34,10.67c0,5.93,4.68,10.8,10.34,10.8c3.82,0,7.05-1.84,8.96-5.33
			l5.4,2.96c-2.96,5.86-8.43,8.5-14.36,8.5C876.92,193.86,869.35,186.15,869.35,176.8z"/>
		<path class="st0" d="M908.93,181.41v-15.02h-6.39v-5.66h6.39v-8.37h6.52v8.37h12.38v5.66h-12.38v14.82c0,4.21,2.5,6.72,6.39,6.72
			c2.11,0,4.41-0.79,5.99-1.91v5.99c-1.65,1.12-4.21,1.84-6.58,1.84C913.21,193.86,908.93,188.79,908.93,181.41z"/>
		<path class="st0" d="M932.83,176.8c0-9.28,7.57-16.86,17.25-16.86c9.75,0,17.12,7.64,17.12,16.86c0,9.35-7.44,16.99-17.12,16.99
			C940.34,193.79,932.83,186.15,932.83,176.8z M960.69,176.87c0-5.93-4.61-10.8-10.6-10.8c-6.06,0-10.73,4.87-10.73,10.8
			c0,5.86,4.68,10.73,10.73,10.73C956.08,187.6,960.69,182.73,960.69,176.87z"/>
		<path class="st0" d="M972.35,186.55l5-2.77c1.65,3.23,4.28,4.41,7.84,4.41c3.69,0,6.52-1.51,6.52-4.35
			c0-6.78-18.51-1.65-18.51-13.96c0-5.66,5-9.81,12.05-9.81c5.99,0,10.08,2.77,12.12,6.52l-5,2.83c-1.38-2.83-4.02-3.82-6.98-3.82
			c-3.03,0-5.66,1.58-5.66,4.15c0,6.59,18.51,1.78,18.51,13.96c0,6.12-5.93,10.01-12.78,10.01
			C979.46,193.73,974.85,191.35,972.35,186.55z"/>
	</g>
</g>
</svg>
