<?xml version="1.0" encoding="utf-8"?>
<!-- Generator: Adobe Illustrator 24.0.2, SVG Export Plug-In . SVG Version: 6.00 Build 0)  -->
<svg version="1.1" id="Layer_1" xmlns="http://www.w3.org/2000/svg" xmlns:xlink="http://www.w3.org/1999/xlink" x="0px" y="0px"
	 viewBox="0 0 599 224" style="enable-background:new 0 0 599 224;" xml:space="preserve">
<style type="text/css">
	.st0{fill:#F2F2F2;}
</style>
<g>
	<g>
		<path class="st0" d="M591.5,70.71v149.92h-48.45c-0.59,0-1.19,0-1.75-0.03V82.83c0-6.55-1.55-12.05-4.64-16.46
			c-3.1-4.39-7.04-7.71-11.82-9.96c-1.24-0.59-2.5-1.08-3.77-1.52c-3.66-1.21-7.48-1.83-11.51-1.83c-5.39,0-10.47,1.08-15.25,3.25
			c-4.77,2.17-8.72,5.44-11.82,9.86c-3.1,4.39-4.67,9.96-4.67,16.67v42.18c-0.88,9.65-2.79,18.6-5.78,26.81
			c-2.68,7.48-6.27,14.37-10.71,20.66c-2.53,3.59-5.21,6.97-8.05,10.17c-9.78,11.09-21.23,19.76-34.39,26.06
			c-16.95,8.08-35.37,12.07-55.34,11.92c-19.97-0.13-38.42-4.18-55.37-12.13c-13.16-6.19-24.61-14.81-34.39-25.85
			c-2.84-3.17-5.52-6.58-8.05-10.17c-10.63-15.04-16.3-33.51-16.95-55.42c0.08-1.44,0.13-2.94,0.13-4.44c0-1.5-0.05-2.99-0.13-4.44
			c-0.62-11.48-3.77-21.23-9.39-29.23c-6.32-9-14.37-15.79-24.15-20.38c-9.73-4.57-20.15-6.86-31.19-6.86
			c-11.07,0-21.47,2.22-31.24,6.63c-9.75,4.44-17.8,11.17-24.15,20.15c-5.65,8.02-8.77,17.88-9.39,29.62c0,0.03,0,0.03,0,0.03
			c-0.08,1.47-0.13,2.97-0.13,4.49c0,1.5,0.05,2.99,0.13,4.44c0,0,0,0,0,0.03c-0.64,21.9-6.29,40.35-16.92,55.39
			c-2.53,3.59-5.21,6.97-8.05,10.17c-9.78,11.09-21.23,19.76-34.39,26.06c-16.95,8.08-35.4,12.07-55.37,11.92v-47.08
			c11.04,0,21.46-2.3,31.22-6.86c9.75-4.59,17.83-11.38,24.15-20.38c5.62-8,8.77-17.75,9.39-29.23c0.08-1.44,0.13-2.94,0.13-4.44
			c0-1.5-0.05-2.99-0.13-4.44c0.64-21.9,6.29-40.38,16.95-55.42c2.55-3.61,5.24-7.04,8.1-10.24c9.75-11.02,21.18-19.61,34.31-25.77
			c16.95-7.95,35.42-12,55.39-12.13c19.97-0.15,38.39,3.82,55.34,11.92c13.18,6.29,24.66,14.96,34.47,25.98
			c2.79,3.15,5.44,6.5,7.97,10.04c10.63,14.89,16.28,33.41,16.95,55.55v0.03c-0.08,1.47-0.13,2.97-0.13,4.49
			c0,1.5,0.05,2.99,0.13,4.44v0.03c0.62,11.48,3.77,21.31,9.37,29.41c6.37,9.18,14.4,15.97,24.15,20.38
			c9.78,4.44,20.18,6.66,31.24,6.66c11.04,0,21.46-2.3,31.22-6.86c9.75-4.59,17.8-11.38,24.15-20.38c5.62-8,8.75-17.75,9.36-29.23
			c0.08-1.44,0.13-2.94,0.13-4.44c0-1.5-0.05-2.99-0.13-4.44c0.1-4-0.39-8.07,0.07-11.86c-0.64-4.28-0.15-8.62-0.15-13.34
			c0-17.23,4-31.53,11.94-42.83c1.52-2.14,3.12-4.18,4.77-6.14c7.15-8.28,15.63-14.68,25.57-19.17c2.42-1.08,4.85-2.06,7.33-2.94
			c10.09-3.61,20.74-5.42,31.89-5.42c2.99,0,5.96,0.13,8.87,0.41c7.84,0.72,15.4,2.4,22.7,5.06c2.58,0.93,5.11,1.99,7.61,3.17
			c12.25,5.75,22.37,14.29,30.31,25.59C584.95,48.85,591.63,60.19,591.5,70.71C591.94,71.09,591.09,70.27,591.5,70.71z"/>
	</g>
	<path class="st0" d="M170.54,167.16c1.55,2.37,3.51,4.13,5.89,5.28c2.38,1.15,4.92,1.72,7.62,1.72c2.69,0,5.24-0.59,7.62-1.78
		c2.38-1.19,4.35-2.94,5.89-5.28c1.55-2.33,2.32-5.24,2.32-8.72c0-3.48-0.77-6.38-2.32-8.71c-1.55-2.33-3.51-4.09-5.89-5.28
		c-2.38-1.19-4.92-1.78-7.62-1.78c-2.7,0-5.24,0.58-7.62,1.72c-2.38,1.15-4.34,2.89-5.89,5.22c-1.55,2.33-2.32,5.28-2.32,8.83
		C168.22,161.87,168.99,164.79,170.54,167.16z"/>
	<path class="st0" d="M170.54,120.51c1.55,2.37,3.51,4.13,5.89,5.28c2.38,1.15,4.92,1.72,7.62,1.72c2.69,0,5.24-0.59,7.62-1.78
		c2.38-1.19,4.35-2.94,5.89-5.28c1.55-2.33,2.32-5.24,2.32-8.72c0-3.48-0.77-6.38-2.32-8.71c-1.55-2.33-3.51-4.09-5.89-5.28
		c-2.38-1.19-4.92-1.78-7.62-1.78c-2.7,0-5.24,0.58-7.62,1.72c-2.38,1.15-4.34,2.89-5.89,5.22c-1.55,2.33-2.32,5.28-2.32,8.83
		C168.22,115.22,168.99,118.14,170.54,120.51z"/>
</g>
</svg>
