<?xml version="1.0" encoding="utf-8"?>
<!-- Generator: Adobe Illustrator 24.0.2, SVG Export Plug-In . SVG Version: 6.00 Build 0)  -->
<svg version="1.1" id="Layer_1" xmlns="http://www.w3.org/2000/svg" xmlns:xlink="http://www.w3.org/1999/xlink" x="0px" y="0px"
	 viewBox="0 0 242.57 55.85" style="enable-background:new 0 0 242.57 55.85;" xml:space="preserve">
<style type="text/css">
	.st0{fill:#1D1D1B;}
</style>
<g>
	<g>
		<path class="st0" d="M143.42,17.92v36.12h-11.67c-0.14,0-0.28,0-0.42-0.01V20.85c0-1.58-0.37-2.9-1.12-3.97
			c-0.75-1.06-1.7-1.86-2.85-2.4c-0.3-0.14-0.6-0.26-0.91-0.37c-0.88-0.29-1.8-0.44-2.77-0.44c-1.3,0-2.52,0.26-3.68,0.78
			c-1.15,0.52-2.1,1.31-2.85,2.38c-0.75,1.06-1.13,2.4-1.13,4.02v10.16c-0.21,2.33-0.67,4.48-1.39,6.46
			c-0.65,1.8-1.51,3.46-2.58,4.98c-0.61,0.86-1.25,1.68-1.94,2.45c-2.36,2.67-5.11,4.76-8.28,6.28c-4.09,1.95-8.52,2.91-13.34,2.87
			c-4.81-0.03-9.26-1.01-13.34-2.92c-3.17-1.49-5.93-3.57-8.28-6.22c-0.69-0.76-1.33-1.59-1.94-2.45
			c-2.56-3.62-3.93-8.07-4.09-13.35c0.02-0.35,0.03-0.71,0.03-1.07c0-0.37-0.01-0.72-0.03-1.07c-0.15-2.77-0.91-5.11-2.26-7.04
			c-1.52-2.17-3.46-3.8-5.82-4.91c-2.34-1.1-4.85-1.65-7.51-1.65c-2.67,0-5.17,0.54-7.53,1.6c-2.35,1.07-4.29,2.69-5.82,4.85
			c-1.36,1.93-2.11,4.31-2.26,7.13c0,0.01,0,0.01,0,0.01c-0.02,0.36-0.03,0.72-0.03,1.08c0,0.36,0.01,0.72,0.03,1.07c0,0,0,0,0,0.01
			c-0.16,5.28-1.51,9.72-4.08,13.34c-0.61,0.86-1.25,1.68-1.94,2.45c-2.36,2.67-5.11,4.76-8.28,6.28C11.26,53.11,6.82,54.07,2,54.04
			V42.71c2.66,0,5.17-0.55,7.52-1.65c2.35-1.1,4.29-2.74,5.82-4.91c1.36-1.93,2.11-4.28,2.26-7.04c0.02-0.35,0.03-0.71,0.03-1.07
			c0-0.37-0.01-0.72-0.03-1.07c0.16-5.28,1.51-9.73,4.09-13.35c0.61-0.87,1.26-1.7,1.95-2.47c2.35-2.65,5.11-4.73,8.27-6.21
			C35.99,3.01,40.44,2.03,45.25,2c4.81-0.04,9.25,0.92,13.34,2.87c3.18,1.51,5.94,3.61,8.3,6.26c0.67,0.76,1.31,1.57,1.92,2.42
			c2.56,3.59,3.92,8.05,4.09,13.38v0.01c-0.02,0.36-0.03,0.72-0.03,1.08c0,0.36,0.01,0.72,0.03,1.07v0.01
			c0.15,2.77,0.91,5.14,2.26,7.09c1.54,2.21,3.47,3.85,5.82,4.91c2.36,1.07,4.86,1.6,7.53,1.6c2.66,0,5.17-0.55,7.52-1.65
			c2.35-1.1,4.29-2.74,5.82-4.91c1.36-1.93,2.11-4.28,2.26-7.04c0.02-0.35,0.03-0.71,0.03-1.07c0-0.37-0.01-0.72-0.03-1.07
			c0.02-0.96-0.1-1.95,0.01-2.86c-0.16-1.03-0.04-2.08-0.04-3.21c0-4.15,0.96-7.6,2.88-10.32c0.37-0.51,0.75-1.01,1.15-1.48
			c1.72-2,3.76-3.53,6.16-4.62c0.58-0.26,1.17-0.5,1.77-0.71c2.43-0.87,4.99-1.3,7.69-1.3c0.72,0,1.44,0.03,2.14,0.1
			c1.89,0.17,3.71,0.58,5.47,1.22c0.62,0.22,1.23,0.48,1.83,0.76c2.95,1.39,5.39,3.44,7.31,6.17
			C141.84,12.66,143.45,15.39,143.42,17.92C143.53,18.02,143.33,17.82,143.42,17.92z"/>
	</g>
	<path class="st0" d="M42,41.17c0.37,0.57,0.84,0.99,1.42,1.27c0.57,0.28,1.19,0.42,1.83,0.42c0.65,0,1.26-0.14,1.83-0.43
		c0.57-0.28,1.05-0.71,1.42-1.27c0.37-0.56,0.56-1.26,0.56-2.1s-0.19-1.54-0.56-2.1c-0.37-0.56-0.84-0.98-1.42-1.27
		c-0.57-0.28-1.19-0.43-1.83-0.43c-0.65,0-1.26,0.14-1.83,0.42c-0.57,0.28-1.04,0.69-1.42,1.26s-0.56,1.27-0.56,2.12
		S41.63,40.59,42,41.17z"/>
	<path class="st0" d="M42,29.93c0.37,0.57,0.84,0.99,1.42,1.27c0.57,0.28,1.19,0.42,1.83,0.42c0.65,0,1.26-0.14,1.83-0.43
		c0.57-0.28,1.05-0.71,1.42-1.27c0.37-0.56,0.56-1.26,0.56-2.1c0-0.83-0.19-1.54-0.56-2.1c-0.37-0.56-0.84-0.98-1.42-1.27
		C46.51,24.15,45.9,24,45.25,24c-0.65,0-1.26,0.14-1.83,0.42c-0.57,0.28-1.04,0.69-1.42,1.26c-0.37,0.56-0.56,1.27-0.56,2.12
		C41.44,28.65,41.63,29.35,42,29.93z"/>
	<g>
		<path class="st0" d="M154.79,18.85l1.36-0.67c0.41,0.92,1.32,1.41,2.57,1.41c1.24,0,2.19-0.59,2.19-1.63
			c0-1.18-1.08-1.38-2.33-1.62c-1.6-0.32-3.59-0.84-3.59-3.09c0-1.76,1.6-3.09,3.62-3.09c1.62,0,3.06,0.76,3.7,2.22l-1.35,0.7
			c-0.43-0.87-1.24-1.41-2.42-1.41c-1.08,0-1.95,0.63-1.95,1.54c0,1.14,1.13,1.39,2.42,1.65c1.59,0.32,3.53,0.84,3.53,3.09
			c0,1.87-1.66,3.18-3.81,3.18C156.93,21.12,155.42,20.31,154.79,18.85z"/>
		<path class="st0" d="M164.77,18.16v-3.62h-1.54v-1.36h1.54v-2.02h1.57v2.02h2.98v1.36h-2.98v3.57c0,1.01,0.6,1.62,1.54,1.62
			c0.51,0,1.07-0.19,1.45-0.46v1.45c-0.4,0.27-1.01,0.44-1.59,0.44C165.8,21.15,164.77,19.93,164.77,18.16z"/>
		<path class="st0" d="M170.52,17.01c0-2.24,1.6-4.06,3.94-4.06c2.35,0,3.81,1.7,3.81,3.87v0.63h-6.22
			c0.17,1.33,1.19,2.27,2.59,2.27c0.95,0,1.81-0.41,2.27-1.27l1.21,0.62c-0.68,1.33-1.94,2.05-3.46,2.05
			C172.29,21.12,170.52,19.41,170.52,17.01z M176.7,16.44c-0.06-1.24-0.97-2.08-2.25-2.08c-1.32,0-2.18,0.92-2.33,2.08
			C172.12,16.44,176.7,16.44,176.7,16.44z"/>
		<path class="st0" d="M180.04,10.6c0-0.57,0.46-1.05,1.03-1.05s1.01,0.48,1.01,1.05s-0.44,1.03-1.01,1.03
			C180.5,11.63,180.04,11.17,180.04,10.6z M181.87,13.17v7.78h-1.57v-7.78H181.87z"/>
		<path class="st0" d="M185.84,17.19v3.76h-1.57v-3.92c0-2.27,1.35-4.05,3.85-4.05c2.54,0,3.92,1.77,3.92,4.03v3.94h-1.57V17.2
			c0-1.46-0.79-2.71-2.35-2.71C186.6,14.49,185.84,15.74,185.84,17.19z"/>
		<path class="st0" d="M194.14,17.07V9.6h1.57v4.54c0.63-0.7,1.59-1.16,2.63-1.16c2.36,0,4.06,1.73,4.06,4.09
			c0,2.24-1.78,4.06-4.12,4.06C195.93,21.14,194.14,19.38,194.14,17.07z M200.83,17.06c0-1.41-1.11-2.59-2.56-2.59
			c-1.46,0-2.57,1.17-2.57,2.59c0,1.43,1.11,2.6,2.57,2.6C199.72,19.66,200.83,18.48,200.83,17.06z"/>
		<path class="st0" d="M203.53,17.01c0-2.24,1.6-4.06,3.94-4.06c2.35,0,3.81,1.7,3.81,3.87v0.63h-6.22
			c0.17,1.33,1.19,2.27,2.59,2.27c0.95,0,1.81-0.41,2.27-1.27l1.21,0.62c-0.68,1.33-1.94,2.05-3.46,2.05
			C205.29,21.12,203.53,19.41,203.53,17.01z M209.71,16.44c-0.06-1.24-0.97-2.08-2.25-2.08c-1.32,0-2.18,0.92-2.33,2.08
			C205.12,16.44,209.71,16.44,209.71,16.44z"/>
		<path class="st0" d="M212.99,20.94v-4.64c0-1.89,1.08-3.3,3.11-3.3c0.49,0,1,0.1,1.39,0.28v1.56c-0.38-0.22-0.83-0.34-1.25-0.34
			c-1.05,0-1.68,0.72-1.68,1.86v4.57L212.99,20.94L212.99,20.94z"/>
		<path class="st0" d="M218.21,22.6l1.32-0.72c0.46,0.84,1.32,1.38,2.45,1.38c1.63,0,2.74-1.17,2.74-3v-0.62
			c-0.51,0.81-1.46,1.41-2.76,1.41c-2.21,0-3.95-1.74-3.95-4.03c0-2.22,1.77-4.05,4.14-4.05c2.35,0,4.14,1.74,4.14,4.06v3.21
			c0,2.7-1.81,4.46-4.29,4.46C220.32,24.71,218.92,23.98,218.21,22.6z M224.7,17.01c0-1.43-1.14-2.54-2.57-2.54
			c-1.41,0-2.57,1.11-2.57,2.54c0,1.43,1.16,2.57,2.57,2.57C223.56,19.58,224.7,18.44,224.7,17.01z"/>
		<path class="st0" d="M157.16,32.68h5.29v1.49h-5.41c-1.08,0-1.49-0.55-1.49-1.46v-9.17h1.62V32.68L157.16,32.68z"/>
		<path class="st0" d="M163.24,30.23c0-2.24,1.6-4.06,3.94-4.06c2.35,0,3.81,1.7,3.81,3.87v0.63h-6.22
			c0.17,1.33,1.19,2.27,2.59,2.27c0.95,0,1.81-0.41,2.27-1.27l1.21,0.62c-0.68,1.33-1.94,2.05-3.46,2.05
			C165.01,34.34,163.24,32.63,163.24,30.23z M169.41,29.67c-0.06-1.24-0.97-2.08-2.25-2.08c-1.32,0-2.18,0.92-2.33,2.08H169.41z"/>
		<path class="st0" d="M172.76,23.82c0-0.57,0.46-1.05,1.03-1.05c0.57,0,1.01,0.48,1.01,1.05c0,0.57-0.44,1.03-1.01,1.03
			C173.22,24.86,172.76,24.4,172.76,23.82z M174.59,26.39v7.78h-1.57v-7.78C173.02,26.39,174.59,26.39,174.59,26.39z"/>
		<path class="st0" d="M176.02,26.39h1.68l2.28,6.33c0.01,0.08,0.08,0.16,0.17,0.16c0.11,0,0.17-0.08,0.19-0.16l2.28-6.33h1.66
			l-2.52,6.76c-0.3,0.81-0.86,1.22-1.62,1.22c-0.73,0-1.33-0.41-1.63-1.22L176.02,26.39z"/>
		<path class="st0" d="M184.82,30.27c0-2.22,1.78-4.06,4.14-4.06c2.35,0,4.14,1.74,4.14,4.06v3.91h-1.49v-1.36
			c-0.59,0.95-1.62,1.55-2.89,1.55C186.47,34.36,184.82,32.52,184.82,30.27z M191.53,30.28c0-1.43-1.11-2.6-2.57-2.6
			c-1.45,0-2.57,1.17-2.57,2.6c0,1.41,1.13,2.59,2.57,2.59C190.42,32.87,191.53,31.69,191.53,30.28z"/>
		<path class="st0" d="M157.42,38.04c0.32-1,1.1-1.48,1.98-1.48c0.9,0,1.68,0.48,2,1.48l2.9,9.35h-1.65l-0.78-2.6l-4.95,0.01
			l-0.78,2.59h-1.63L157.42,38.04z M157.37,43.33h4.08l-1.43-4.81c-0.11-0.34-0.3-0.49-0.6-0.49c-0.32,0-0.51,0.16-0.6,0.49
			L157.37,43.33z"/>
		<path class="st0" d="M165.85,47.39v-4.64c0-1.89,1.08-3.3,3.11-3.3c0.49,0,1,0.1,1.39,0.28v1.56c-0.38-0.22-0.83-0.34-1.25-0.34
			c-1.05,0-1.68,0.72-1.68,1.86v4.57L165.85,47.39L165.85,47.39z"/>
		<path class="st0" d="M177.58,50.96v-4.55c-0.63,0.72-1.6,1.17-2.65,1.17c-2.35,0-4.06-1.74-4.06-4.09c0-2.22,1.77-4.06,4.14-4.06
			c2.35,0,4.14,1.74,4.14,4.06v7.48H177.58z M177.58,43.51c0-1.43-1.11-2.59-2.57-2.59c-1.45,0-2.57,1.16-2.57,2.59
			c0,1.41,1.13,2.6,2.57,2.6C176.46,46.11,177.58,44.92,177.58,43.51z"/>
		<path class="st0" d="M187.18,43.36v-3.74h1.57v3.94c0,2.25-1.36,4.03-3.81,4.03c-2.42,0-3.77-1.79-3.77-4.05v-3.92h1.57v3.76
			c0,1.43,0.78,2.68,2.21,2.68C186.39,46.06,187.18,44.81,187.18,43.36z"/>
		<path class="st0" d="M190.85,37.05c0-0.57,0.46-1.05,1.03-1.05c0.57,0,1.01,0.48,1.01,1.05c0,0.57-0.44,1.03-1.01,1.03
			C191.31,38.07,190.85,37.62,190.85,37.05z M192.68,39.62v7.78h-1.57v-7.78H192.68z"/>
		<path class="st0" d="M195.65,44.6v-3.62h-1.54v-1.36h1.54V37.6h1.57v2.02h2.98v1.36h-2.98v3.57c0,1.01,0.6,1.62,1.54,1.62
			c0.51,0,1.07-0.19,1.45-0.46v1.45c-0.4,0.27-1.01,0.44-1.59,0.44C196.67,47.6,195.65,46.38,195.65,44.6z"/>
		<path class="st0" d="M201.41,43.46c0-2.24,1.6-4.06,3.94-4.06c2.35,0,3.81,1.7,3.81,3.87v0.63h-6.22
			c0.17,1.33,1.19,2.27,2.59,2.27c0.95,0,1.81-0.41,2.27-1.27l1.21,0.62c-0.68,1.33-1.94,2.05-3.46,2.05
			C203.17,47.56,201.41,45.85,201.41,43.46z M207.58,42.88c-0.06-1.24-0.97-2.08-2.25-2.08c-1.32,0-2.18,0.92-2.33,2.08H207.58z"/>
		<path class="st0" d="M210.37,43.49c0-2.24,1.83-4.08,4.06-4.06c1.43,0,2.74,0.65,3.46,2.05l-1.3,0.73
			c-0.46-0.84-1.24-1.28-2.16-1.28c-1.36,0-2.49,1.16-2.49,2.57c0,1.43,1.13,2.6,2.49,2.6c0.92,0,1.7-0.44,2.16-1.28l1.3,0.72
			c-0.72,1.41-2.03,2.05-3.46,2.05C212.2,47.6,210.37,45.74,210.37,43.49z"/>
		<path class="st0" d="M219.9,44.6v-3.62h-1.54v-1.36h1.54V37.6h1.57v2.02h2.98v1.36h-2.98v3.57c0,1.01,0.6,1.62,1.54,1.62
			c0.51,0,1.07-0.19,1.45-0.46v1.45c-0.4,0.27-1.01,0.44-1.59,0.44C220.94,47.6,219.9,46.38,219.9,44.6z"/>
		<path class="st0" d="M225.67,43.49c0-2.24,1.83-4.06,4.16-4.06c2.35,0,4.12,1.84,4.12,4.06c0,2.25-1.79,4.09-4.12,4.09
			C227.48,47.58,225.67,45.74,225.67,43.49z M232.38,43.51c0-1.43-1.11-2.6-2.56-2.6c-1.46,0-2.59,1.17-2.59,2.6
			c0,1.41,1.13,2.59,2.59,2.59C231.26,46.09,232.38,44.92,232.38,43.51z"/>
		<path class="st0" d="M235.19,45.84l1.21-0.67c0.4,0.78,1.03,1.07,1.89,1.07c0.89,0,1.57-0.37,1.57-1.05c0-1.63-4.46-0.4-4.46-3.36
			c0-1.36,1.21-2.36,2.9-2.36c1.45,0,2.43,0.67,2.92,1.57l-1.21,0.68c-0.34-0.68-0.97-0.92-1.68-0.92c-0.73,0-1.36,0.38-1.36,1
			c0,1.59,4.46,0.43,4.46,3.36c0,1.48-1.43,2.42-3.08,2.42C236.9,47.56,235.79,47,235.19,45.84z"/>
	</g>
</g>
</svg>
