<?xml version="1.0" encoding="utf-8"?>
<!-- Generator: Adobe Illustrator 24.0.2, SVG Export Plug-In . SVG Version: 6.00 Build 0)  -->
<svg version="1.1" id="Layer_1" xmlns="http://www.w3.org/2000/svg" xmlns:xlink="http://www.w3.org/1999/xlink" x="0px" y="0px"
	 viewBox="0 0 129 53" style="enable-background:new 0 0 129 53;" xml:space="preserve">
<style type="text/css">
	.st0{fill:#F2F2F2;}
</style>
<g>
	<g>
		<path class="st0" d="M122.33,17.91V48h-9.72c-0.12,0-0.24,0-0.35-0.01V20.34c0-1.31-0.31-2.42-0.93-3.3
			c-0.62-0.88-1.41-1.55-2.37-2c-0.25-0.12-0.5-0.22-0.76-0.31c-0.73-0.24-1.5-0.37-2.31-0.37c-1.08,0-2.1,0.22-3.06,0.65
			c-0.96,0.44-1.75,1.09-2.37,1.98c-0.62,0.88-0.94,2-0.94,3.35v8.46c-0.18,1.94-0.56,3.73-1.16,5.38c-0.54,1.5-1.26,2.88-2.15,4.15
			c-0.51,0.72-1.05,1.4-1.62,2.04c-1.96,2.23-4.26,3.97-6.9,5.23c-3.4,1.62-7.1,2.42-11.11,2.39c-4.01-0.03-7.71-0.84-11.11-2.43
			c-2.64-1.24-4.94-2.97-6.9-5.19c-0.57-0.64-1.11-1.32-1.62-2.04c-2.13-3.02-3.27-6.72-3.4-11.12c0.02-0.29,0.03-0.59,0.03-0.89
			c0-0.3-0.01-0.6-0.03-0.89c-0.12-2.3-0.76-4.26-1.88-5.87c-1.27-1.81-2.88-3.17-4.85-4.09c-1.95-0.92-4.04-1.38-6.26-1.38
			c-2.22,0-4.31,0.45-6.27,1.33c-1.96,0.89-3.57,2.24-4.85,4.04c-1.13,1.61-1.76,3.59-1.88,5.94c0,0.01,0,0.01,0,0.01
			c-0.02,0.29-0.03,0.6-0.03,0.9c0,0.3,0.01,0.6,0.03,0.89c0,0,0,0,0,0.01c-0.13,4.39-1.26,8.1-3.4,11.12
			c-0.51,0.72-1.05,1.4-1.62,2.04c-1.96,2.23-4.26,3.97-6.9,5.23c-3.4,1.62-7.1,2.42-11.11,2.39v-9.45c2.22,0,4.31-0.46,6.26-1.38
			c1.96-0.92,3.58-2.28,4.85-4.09c1.13-1.61,1.76-3.56,1.88-5.87c0.02-0.29,0.03-0.59,0.03-0.89c0-0.3-0.01-0.6-0.03-0.89
			c0.13-4.39,1.26-8.1,3.4-11.12c0.51-0.72,1.05-1.41,1.63-2.05c1.96-2.21,4.25-3.94,6.88-5.17c3.4-1.6,7.11-2.41,11.12-2.43
			c4.01-0.03,7.7,0.77,11.11,2.39c2.64,1.26,4.95,3,6.92,5.21c0.56,0.63,1.09,1.3,1.6,2.01c2.13,2.99,3.27,6.7,3.4,11.15v0.01
			c-0.02,0.29-0.03,0.6-0.03,0.9c0,0.3,0.01,0.6,0.03,0.89v0.01c0.12,2.3,0.76,4.28,1.88,5.9c1.28,1.84,2.89,3.2,4.85,4.09
			c1.96,0.89,4.05,1.34,6.27,1.34c2.22,0,4.31-0.46,6.26-1.38c1.96-0.92,3.57-2.28,4.85-4.09c1.13-1.61,1.76-3.56,1.88-5.87
			c0.02-0.29,0.03-0.59,0.03-0.89s-0.01-0.6-0.03-0.89c0.02-0.8-0.08-1.62,0.01-2.38c-0.13-0.86-0.03-1.73-0.03-2.68
			c0-3.46,0.8-6.33,2.4-8.59c0.31-0.43,0.63-0.84,0.96-1.23c1.43-1.66,3.14-2.95,5.13-3.85c0.49-0.22,0.97-0.41,1.47-0.59
			c2.02-0.72,4.16-1.09,6.4-1.09c0.6,0,1.2,0.03,1.78,0.08c1.57,0.14,3.09,0.48,4.56,1.02c0.52,0.19,1.03,0.4,1.53,0.64
			c2.46,1.15,4.49,2.87,6.08,5.14C121.02,13.52,122.36,15.8,122.33,17.91C122.42,17.99,122.25,17.82,122.33,17.91z"/>
	</g>
	<path class="st0" d="M37.86,37.27c0.31,0.48,0.7,0.83,1.18,1.06c0.48,0.23,0.99,0.35,1.53,0.35c0.54,0,1.05-0.12,1.53-0.36
		c0.48-0.24,0.87-0.59,1.18-1.06c0.31-0.47,0.47-1.05,0.47-1.75c0-0.7-0.15-1.28-0.47-1.75c-0.31-0.47-0.7-0.82-1.18-1.06
		c-0.48-0.24-0.99-0.36-1.53-0.36s-1.05,0.12-1.53,0.35c-0.48,0.23-0.87,0.58-1.18,1.05c-0.31,0.47-0.47,1.06-0.47,1.77
		C37.39,36.2,37.55,36.79,37.86,37.27z"/>
	<path class="st0" d="M37.86,27.9c0.31,0.48,0.7,0.83,1.18,1.06c0.48,0.23,0.99,0.35,1.53,0.35c0.54,0,1.05-0.12,1.53-0.36
		c0.48-0.24,0.87-0.59,1.18-1.06c0.31-0.47,0.47-1.05,0.47-1.75s-0.15-1.28-0.47-1.75c-0.31-0.47-0.7-0.82-1.18-1.06
		s-0.99-0.36-1.53-0.36s-1.05,0.12-1.53,0.35c-0.48,0.23-0.87,0.58-1.18,1.05c-0.31,0.47-0.47,1.06-0.47,1.77
		C37.39,26.84,37.55,27.43,37.86,27.9z"/>
</g>
</svg>
